<mxfile host="app.diagrams.net" modified="2021-08-09T09:00:22.463Z" agent="5.0 (Windows)" etag="LM8DWyJdg1mq6V_Ucyeu" version="14.9.5" type="github">
  <diagram id="C5RBs43oDa-KdzZeNtuy" name="Page-1">
    <mxGraphModel dx="1422" dy="769" grid="1" gridSize="10" guides="1" tooltips="1" connect="1" arrows="1" fold="1" page="1" pageScale="1" pageWidth="827" pageHeight="1169" math="0" shadow="0">
      <root>
        <mxCell id="WIyWlLk6GJQsqaUBKTNV-0" />
        <mxCell id="WIyWlLk6GJQsqaUBKTNV-1" parent="WIyWlLk6GJQsqaUBKTNV-0" />
        <mxCell id="mM4xZMxqIYVrbbXNMaOM-0" value="&lt;b&gt;PM&lt;/b&gt;" style="rounded=1;whiteSpace=wrap;html=1;fillColor=#dae8fc;strokeColor=#6c8ebf;" vertex="1" parent="WIyWlLk6GJQsqaUBKTNV-1">
          <mxGeometry x="70" y="170" width="120" height="60" as="geometry" />
        </mxCell>
        <mxCell id="mM4xZMxqIYVrbbXNMaOM-1" value="&lt;b&gt;BA&lt;/b&gt;" style="rounded=1;whiteSpace=wrap;html=1;fillColor=#fff2cc;strokeColor=#d6b656;" vertex="1" parent="WIyWlLk6GJQsqaUBKTNV-1">
          <mxGeometry x="70" y="250" width="120" height="60" as="geometry" />
        </mxCell>
        <mxCell id="mM4xZMxqIYVrbbXNMaOM-2" value="&lt;b&gt;Architecture&lt;/b&gt;" style="rounded=1;whiteSpace=wrap;html=1;fillColor=#f8cecc;strokeColor=#b85450;" vertex="1" parent="WIyWlLk6GJQsqaUBKTNV-1">
          <mxGeometry x="70" y="330" width="120" height="60" as="geometry" />
        </mxCell>
        <mxCell id="mM4xZMxqIYVrbbXNMaOM-3" value="Development Team Lead" style="rounded=1;whiteSpace=wrap;html=1;fillColor=#e1d5e7;strokeColor=#9673a6;fontStyle=1" vertex="1" parent="WIyWlLk6GJQsqaUBKTNV-1">
          <mxGeometry x="70" y="410" width="120" height="60" as="geometry" />
        </mxCell>
        <mxCell id="mM4xZMxqIYVrbbXNMaOM-4" value="Scrum Team" style="rounded=1;whiteSpace=wrap;html=1;fillColor=#ffe6cc;strokeColor=#d79b00;fontStyle=1" vertex="1" parent="WIyWlLk6GJQsqaUBKTNV-1">
          <mxGeometry x="70" y="490" width="120" height="60" as="geometry" />
        </mxCell>
        <mxCell id="mM4xZMxqIYVrbbXNMaOM-5" value="&lt;div&gt;DV065&lt;/div&gt;&lt;div&gt;OI Proposal&lt;br&gt;&lt;/div&gt;" style="shape=card;whiteSpace=wrap;html=1;fillColor=#dae8fc;strokeColor=#6c8ebf;fontStyle=1" vertex="1" parent="WIyWlLk6GJQsqaUBKTNV-1">
          <mxGeometry x="260" y="170" width="80" height="100" as="geometry" />
        </mxCell>
      </root>
    </mxGraphModel>
  </diagram>
</mxfile>
